<?xml version="1.0" encoding="utf-8"?>
<!-- Generator: Adobe Illustrator 16.0.3, SVG Export Plug-In . SVG Version: 6.00 Build 0)  -->
<!DOCTYPE svg PUBLIC "-//W3C//DTD SVG 1.1//EN" "http://www.w3.org/Graphics/SVG/1.1/DTD/svg11.dtd">
<svg version="1.1" id="Layer_1" xmlns="http://www.w3.org/2000/svg" xmlns:xlink="http://www.w3.org/1999/xlink" x="0px" y="0px"
	 width="24px" height="24px" viewBox="0 0 24 24" enable-background="new 0 0 24 24" xml:space="preserve">
<path fill="#FFFFFF" d="M20.354,23.695H3.647c-1.663,0-3.016-1.354-3.016-3.016V3.32c0-1.662,1.353-3.016,3.016-3.016h16.705
	c1.664,0,3.017,1.354,3.017,3.016v17.36C23.368,22.343,22.016,23.695,20.354,23.695z M3.647,2.315c-0.554,0-1.005,0.451-1.005,1.005
	v17.36c0,0.555,0.451,1.006,1.005,1.006h16.705c0.556,0,1.006-0.451,1.006-1.006V3.32c0-0.554-0.45-1.005-1.006-1.005H3.647z"/>
<circle fill="#FFFFFF" cx="12.095" cy="8.688" r="4.313"/>
<path fill="#FFFFFF" d="M17.168,19.021c0-3.211-2.313-5.813-5.168-5.813c-2.855,0-5.168,2.603-5.168,5.813
	c0,3.209,2.313,2.895,5.168,2.895C14.855,21.916,17.168,22.23,17.168,19.021z"/>
</svg>
